<svg width="268" height="147" viewBox="0 0 268 147" fill="none" xmlns="http://www.w3.org/2000/svg">
<g clip-path="url(#clip0_4774_8372)">
<path d="M150.559 93.2799C136.203 93.2799 119.11 85.3437 112.358 81.3756C143.274 84.0408 121.775 57.7447 88.7275 49.3939C110.759 48.1502 120.887 53.8358 133.68 65.2071C108.983 12.7927 160.509 1.06606 178.987 0C170.281 1.95444 149.848 8.31524 149.848 27.3621C149.848 51.1707 164.773 63.075 164.773 81.0203C164.773 86.8836 160.864 93.2799 150.559 93.2799Z" fill="url(#paint0_linear_4774_8372)"/>
<path d="M33.0597 106.663L21.9015 138.163L11.8498 110.266C11.538 109.279 10.9373 108.408 10.1253 107.766C9.31341 107.123 8.32755 106.739 7.29514 106.663H0L0.238029 107.307C1.17734 107.368 2.07576 107.714 2.8144 108.298C3.55303 108.881 4.09707 109.675 4.37451 110.575L17.4723 146.986H22.9147L37.1769 106.66H33.0597V106.663Z" fill="#2A398C"/>
<path d="M49.265 142.566C49.265 141.202 49.265 107.223 49.265 107.223H42.1565V142.589C42.1565 142.589 41.9988 146.989 45.7622 146.989H51.2657V146.461C51.2657 146.461 49.265 146.085 49.265 142.566Z" fill="#2A398C"/>
<path d="M91.2634 142.448V107.387L91.2892 107.207H87.3875H87.3553V136.696L66.1261 107.23H55.9714L56.0422 107.651C56.8253 108.3 57.4351 109.134 57.8168 110.077C58.1985 111.02 58.3403 112.043 58.2295 113.055V145.864C58.2295 145.918 58.2552 145.97 58.2552 146.021V146.343C58.2552 146.404 58.2295 146.475 58.2295 146.552V147.002H62.1762V146.928V113.515L86.3357 146.989H93.4603L93.4217 146.478C92.6999 146.099 92.1084 145.513 91.7236 144.794C91.3388 144.076 91.1785 143.258 91.2634 142.448Z" fill="#2A398C"/>
<path d="M110.427 107.223H96.1582L96.2129 107.644C96.2129 107.644 98.22 108.326 98.442 112.816V142.589C98.442 142.589 98.368 146.989 102.019 146.989H107.85V146.503C107.13 146.146 106.532 145.584 106.132 144.887C105.731 144.19 105.546 143.391 105.599 142.589V128.391H111.614C113.023 128.41 124.824 128.796 124.824 118.181C124.824 107.76 114.953 107.223 110.424 107.223H110.427ZM110.076 125.055C107.937 125.055 105.596 125.055 105.596 125.055V110.613H110.282C114.38 110.613 117.68 111.639 117.68 118.172C117.68 124.486 112.678 125.055 110.063 125.055" fill="#2A398C"/>
<path d="M153.127 142.866H138.048V128.762H153.835L153.877 128.559V124.828L153.835 124.619H138.048V111.351H150.879C153.828 111.351 154.739 112.341 154.999 113.049H155.623L154.896 108.867C154.51 108.299 153.977 107.846 153.354 107.557C152.731 107.267 152.041 107.152 151.358 107.224H128.591L128.656 107.645C128.656 107.645 130.766 108.359 130.881 113.232V146.99H153.446C154.458 147.014 155.447 146.688 156.247 146.067L156.858 141.136H156.357C155.877 142.989 153.442 142.866 153.124 142.866" fill="#2A398C"/>
<path d="M195.345 142.564L185.528 111.756L185.717 112.348C184.865 109.698 184.318 108.022 185.026 107.234L184.962 106.793H175.219L168.699 126.613C165.575 126.797 162.491 125.845 160.014 123.934L159.93 124.478C159.889 124.452 161.745 128.106 161.828 128.18C163.573 129.417 165.596 130.204 167.718 130.473L162.468 146.984L162.607 146.968H166.856L172.16 130.747H180.446C181.436 130.659 182.427 130.921 183.245 131.487C184.063 132.053 184.658 132.886 184.926 133.844L187.786 142.561C187.786 142.561 188.966 146.968 192.086 146.968H197.68L197.657 146.575C196.342 145.932 195.406 142.854 195.332 142.561L195.345 142.564ZM180.214 126.626H173.083L177.982 111.576L183.186 127.186C182.282 126.72 181.262 126.525 180.249 126.626" fill="#2A398C"/>
<path d="M229.826 137.265C228.574 134.896 227.164 132.614 225.606 130.433C224.611 129.171 223.366 128.127 221.949 127.368C223.687 126.874 225.26 125.92 226.501 124.606C227.742 123.293 228.606 121.669 229.001 119.905C229.396 118.142 229.308 116.305 228.746 114.587C228.185 112.87 227.17 111.336 225.809 110.147C223.209 108.081 219.945 107.037 216.629 107.21H200.488L200.559 107.631C200.559 107.631 202.566 108.323 202.769 112.845V114C202.769 114.177 202.801 114.36 202.801 114.544V139.536C202.801 139.71 202.769 139.887 202.769 140.064V146.989H209.89V129.565H213.142C217.185 129.565 218.8 132.46 222.039 138.15C223.236 140.31 224.542 142.409 225.95 144.438C226.452 145.271 227.173 145.949 228.035 146.399C228.897 146.848 229.867 147.051 230.836 146.986H236.781V146.97L236.803 146.507C234.69 145.947 232.799 142.463 229.814 137.262L229.826 137.265ZM215.58 125.338H209.877V110.542H214.905C215.878 110.456 216.859 110.581 217.78 110.911C218.7 111.24 219.538 111.765 220.235 112.45C220.933 113.135 221.474 113.963 221.82 114.877C222.166 115.791 222.31 116.769 222.242 117.744C222.333 118.685 222.23 119.635 221.94 120.534C221.649 121.434 221.178 122.265 220.554 122.975C219.93 123.685 219.167 124.26 218.312 124.664C217.457 125.067 216.528 125.292 215.584 125.322" fill="#2A398C"/>
<path d="M267.633 142.865H249.144L249.08 142.83V114.624C249.08 114.302 249.112 115.727 249.112 111.941C249.112 107.335 245.513 107.223 245.513 107.223H239.697L239.768 107.644C239.768 107.644 241.698 108.287 241.968 112.565V113.775C241.968 113.891 241.991 114.013 241.991 114.119V139.208C241.991 139.327 241.968 139.433 241.968 139.559V146.989H267.189L267.713 142.84L267.633 142.865Z" fill="#2A398C"/>
</g>
<defs>
<linearGradient id="paint0_linear_4774_8372" x1="133.857" y1="0" x2="133.857" y2="93.2799" gradientUnits="userSpaceOnUse">
<stop stop-color="#D88325"/>
<stop offset="1" stop-color="#FEA821"/>
</linearGradient>
<clipPath id="clip0_4774_8372">
<rect width="267.714" height="147" fill="white"/>
</clipPath>
</defs>
</svg>
